# xmcd CD database file
#
# Track frame offsets:
#	150
#	36437
#	67052
#	109113
#	133506
#	163651
#	186838
#	224708
#
# Disc length: 3799 seconds
#
# Revision: 1
# Processed by: cddbd v1.4PL0 Copyright (c) Steve Scherf et al.
# Submitted via: CDex 1.50beta10
#
DISCID=7d0ed508
DTITLE=Greg Runions - But Not Forgotten
DYEAR=1993
DGENRE=Jazz
TTITLE0=Waltz for Lauren
TTITLE1=Yearning
TTITLE2=Kay Double Ewe
TTITLE3=Don't Take the Bullit
TTITLE4=Imagine a Mountain
TTITLE5=Mysterious Visitor
TTITLE6=But Not Forgotten
TTITLE7=If I Only...
EXTD=YEAR: 1993
EXTT0=
EXTT1=
EXTT2=
EXTT3=
EXTT4=
EXTT5=
EXTT6=
EXTT7=
PLAYORDER=
